HIERARCHY
ROOT Hips
{
    OFFSET 0.000000 0.000000 0.000000
    CHANNELS 6 Xposition Yposition Zposition Zrotation Xrotation Yrotation
        JOINT Spine1
        {
            OFFSET -0.000000 23.269398 0.000000
            CHANNELS 3 Zrotation Xrotation Yrotation
            JOINT Neck
            {
                OFFSET -0.000000 18.032967 0.000000
                CHANNELS 3 Zrotation Xrotation Yrotation
                JOINT Head
                {
                    OFFSET -0.000000 13.091072 1.689171
                    CHANNELS 3 Zrotation Xrotation Yrotation
                    End Site
                    {
                        OFFSET -0.000000 16.891708 0.000000
                    }
                }
            }
            JOINT LeftShoulder
            {
                OFFSET 3.336773 14.146137 -0.012206
                CHANNELS 3 Zrotation Xrotation Yrotation
                JOINT LeftArm
                {
                    OFFSET 11.765518 0.000000 0.000000
                    CHANNELS 3 Zrotation Xrotation Yrotation
                    JOINT LeftForeArm
                    {
                        OFFSET 25.163450 0.000000 0.000000
                        CHANNELS 3 Zrotation Xrotation Yrotation
                        JOINT LeftHand
                        {
                            OFFSET 21.783554 0.000000 0.000000
                            CHANNELS 3 Zrotation Xrotation Yrotation
                            End Site
                            {
                                OFFSET 12.668781 0.000000 0.000000
                            }
                        }
                    }
                }
            }
            JOINT RightShoulder
            {
                OFFSET -3.409204 14.146137 -0.012206
                CHANNELS 3 Zrotation Xrotation Yrotation
                JOINT RightArm
                {
                    OFFSET -11.765518 0.000000 0.000000
                    CHANNELS 3 Zrotation Xrotation Yrotation
                    JOINT RightForeArm
                    {
                        OFFSET -25.163450 0.000000 0.000000
                        CHANNELS 3 Zrotation Xrotation Yrotation
                        JOINT RightHand
                        {
                            OFFSET -21.783554 0.000000 0.000000
                            CHANNELS 3 Zrotation Xrotation Yrotation
                            End Site
                            {
                                OFFSET -12.668781 0.000000 0.000000
                            }
                        }
                    }
                }
            }
        }
        JOINT LeftUpLeg
    {
        OFFSET 8.445854 0.000000 0.000000
        CHANNELS 3 Zrotation Xrotation Yrotation
        JOINT LeftLeg
        {
            OFFSET -0.000000 -40.674755 0.000000
            CHANNELS 3 Zrotation Xrotation Yrotation
            JOINT LeftFoot
            {
                OFFSET -0.000000 -37.111794 0.000000
                CHANNELS 3 Zrotation Xrotation Yrotation
                JOINT LeftToeBase
                {
                    OFFSET -0.000000 -5.489805 12.668781
                    CHANNELS 3 Zrotation Xrotation Yrotation
                    End Site
                    {
                        OFFSET -0.000000 0.000000 3.378341
                    }
                }
            }
        }
    }
    JOINT RightUpLeg
    {
        OFFSET -8.445854 0.000000 0.000000
        CHANNELS 3 Zrotation Xrotation Yrotation
        JOINT RightLeg
        {
            OFFSET -0.000000 -40.674755 0.000000
            CHANNELS 3 Zrotation Xrotation Yrotation
            JOINT RightFoot
            {
                OFFSET -0.000000 -37.111794 0.000000
                CHANNELS 3 Zrotation Xrotation Yrotation
                JOINT RightToeBase
                {
                    OFFSET -0.000000 -5.489805 12.668781
                    CHANNELS 3 Zrotation Xrotation Yrotation
                    End Site
                    {
                        OFFSET -0.000000 0.000000 3.378341
                    }
                }
            }
        }
    }
}
MOTION
Frames:    4
Frame Time:    0.008333
101.784370    83.865326    127.066734    -1.435054    -0.443412    -93.559601    4.903553    22.666340    -6.039051    -6.398284    0.242117    23.240290    -6.824492    -11.050720    23.291176    3.480859    3.119422    -0.903741    -38.101212    45.608921    -53.881664    -19.725357    -65.670944    -22.267492    153.608597    -69.072792    -3.500466    -9.039037    3.641612    9.329238    59.491207    22.176342    41.278900    8.060000    12.992891    10.281467    -8.587958    11.059898    16.533741    3.198955    -5.797262    -0.884969    1.434667    16.180176    8.501687    -5.755012    -7.117815    17.891806    -2.272181    -0.949881    4.532391    1.079429    -3.758502    -3.420495    -7.692306    9.815790    -8.716871    6.035857    -7.013062    -0.447157    -2.220520    3.637578    0.312412    
101.876404    83.898277    127.063240    -1.318032    -0.336959    -93.570526    4.877424    22.869915    -5.995961    -7.473155    0.497051    22.896965    -4.089306    -12.715952    22.654964    3.744548    3.131727    -0.815537    -38.106396    45.657593    -52.367168    -68.936546    -73.651123    -71.036346    111.242996    -81.481422    -50.914505    -8.418327    3.356280    9.192743    58.593525    22.394119    41.469814    8.019300    13.545960    10.572663    -8.116497    11.774817    15.024692    3.343916    -5.961303    -0.817302    1.401169    16.156204    8.457306    -5.724541    -7.033024    17.879229    -2.305464    -0.977295    4.573917    1.187675    -3.882487    -3.389300    -7.743118    9.759879    -8.701440    6.073081    -6.955184    -0.476602    -0.884771    2.450150    -1.601054    
101.961517    83.908882    127.075150    -1.214773    -0.351769    -93.613792    4.919182    23.047249    -5.990131    -7.523502    -0.235274    22.743883    -4.096908    -11.633779    22.578114    3.571497    3.055952    -0.951156    -38.000797    45.572544    -51.000542    -88.242699    -69.916130    -90.092216    76.805748    -82.934555    -88.595276    -8.685271    3.315200    9.227509    58.708099    22.431414    41.797634    7.818635    13.814568    10.431911    -8.856605    11.941110    15.490582    3.335991    -6.099251    -0.704904    1.348966    16.093220    8.415045    -5.635686    -6.989479    17.889021    -2.271903    -0.941851    4.548891    1.177722    -4.016383    -3.356544    -7.743066    9.684856    -8.698095    6.047565    -6.871078    -0.466623    -0.866713    2.442191    -1.641628    
102.043808    83.919846    127.084419    -1.125799    -0.354960    -93.641312    4.883069    23.208612    -5.957285    -6.046257    0.172181    22.102718    -6.520138    -10.976335    22.172812    3.567563    3.052387    -1.137200    -38.014175    45.377712    -50.082222    -95.820595    -66.403412    -97.417198    54.099861    -82.945953    -114.046829    -8.784011    3.334386    9.358545    58.700729    22.290443    42.047726    7.769889    13.927126    10.336797    -8.953440    12.045730    15.574912    3.341336    -6.199882    -0.689501    1.343400    16.007374    8.446636    -5.625154    -6.929864    17.873487    -2.238702    -0.894586    4.550473    1.185536    -4.113460    -3.337128    -7.752553    9.572049    -8.651573    6.005427    -6.786090    -0.509996    -0.881208    2.468375    -1.642186    
